<?xml version="1.0" standalone="no"?>
<!DOCTYPE svg PUBLIC "-//W3C//DTD SVG 20010904//EN"
 "http://www.w3.org/TR/2001/REC-SVG-20010904/DTD/svg10.dtd">
<svg version="1.0" xmlns="http://www.w3.org/2000/svg"
 width="1222.000000pt" height="1222.000000pt" viewBox="0 0 1222.000000 1222.000000"
 preserveAspectRatio="xMidYMid meet">
<metadata>
Created by potrace 1.11, written by Peter Selinger 2001-2013
</metadata>
<g transform="translate(0.000000,1222.000000) scale(0.100000,-0.100000)"
fill="#000000" stroke="none">
<path d="M5779 12166 c-2 -2 -58 -7 -124 -10 -66 -4 -132 -8 -145 -11 -14 -2
-54 -6 -90 -10 -84 -7 -149 -15 -179 -20 -13 -2 -45 -7 -70 -10 -25 -4 -95
-16 -156 -27 -60 -11 -121 -22 -135 -24 -296 -51 -855 -220 -1135 -344 -11 -5
-78 -34 -150 -65 -217 -96 -484 -236 -690 -363 -115 -70 -355 -230 -373 -248
-7 -8 -17 -14 -21 -14 -4 0 -16 -8 -27 -17 -10 -10 -46 -38 -79 -62 -33 -25
-62 -47 -65 -51 -3 -3 -21 -17 -40 -30 -19 -13 -37 -27 -40 -30 -3 -3 -34 -30
-70 -59 -191 -157 -539 -497 -701 -686 -143 -166 -294 -357 -375 -475 -113
-166 -156 -230 -219 -332 -113 -183 -258 -456 -350 -657 -77 -169 -226 -546
-239 -606 -1 -5 -16 -55 -34 -110 -17 -55 -36 -120 -43 -145 -7 -25 -14 -49
-15 -55 -5 -15 -64 -247 -69 -270 -2 -11 -6 -31 -9 -45 -9 -40 -28 -134 -30
-150 -3 -20 -17 -100 -22 -125 -9 -45 -43 -295 -50 -360 -3 -38 -8 -81 -10
-95 -12 -93 -18 -299 -18 -570 0 -335 8 -479 39 -720 2 -19 7 -57 10 -85 3
-27 10 -79 16 -115 6 -36 13 -78 16 -95 59 -378 227 -956 385 -1320 61 -141
181 -399 198 -425 6 -8 14 -25 20 -37 15 -35 148 -269 203 -358 161 -258 331
-494 532 -735 124 -149 513 -548 624 -640 29 -25 72 -62 95 -82 23 -20 71 -60
107 -88 35 -28 82 -65 103 -83 77 -62 378 -274 458 -322 9 -5 86 -51 170 -102
523 -313 1164 -568 1759 -699 62 -14 390 -73 434 -79 28 -4 64 -8 80 -11 17
-2 50 -6 75 -9 25 -3 63 -8 85 -11 46 -6 87 -9 240 -21 137 -10 744 -10 885
-1 156 11 229 17 269 22 20 3 59 8 86 11 97 11 141 18 245 35 30 5 73 12 95
15 22 4 48 8 57 11 10 3 30 7 45 10 16 3 35 7 43 9 8 2 30 7 48 10 28 5 93 19
222 50 156 37 494 145 675 215 238 92 595 258 765 356 344 197 471 283 849
568 28 22 265 225 321 276 207 189 491 495 650 700 19 25 39 50 45 57 22 25
166 224 227 313 206 303 439 733 568 1050 12 30 29 70 37 88 50 115 219 625
237 718 2 10 12 48 21 84 9 36 19 76 22 90 2 14 13 66 24 115 25 115 60 321
75 440 5 33 9 62 9 65 1 3 5 41 9 85 4 44 9 91 12 105 26 165 25 903 -1 1115
-2 17 -7 59 -10 94 -11 111 -26 226 -51 376 -29 180 -114 537 -179 750 -95
312 -218 618 -377 935 -48 96 -104 204 -124 240 -335 594 -779 1145 -1274
1580 -47 41 -87 77 -90 80 -3 3 -52 44 -110 91 -753 614 -1664 1045 -2615
1238 -89 18 -131 26 -251 46 -18 3 -52 7 -75 10 -24 3 -51 7 -59 10 -8 2 -42
7 -75 10 -33 3 -71 7 -85 10 -14 2 -65 7 -115 11 -49 3 -108 8 -130 11 -51 5
-791 14 -796 9z"/>
</g>
</svg>
